# xmcd
#
# Track frame offsets:
#	150
#	12907
#	23534
#	35484
#	43388
#	54633
#	65952
#	82737
#	98944
#	111699
#	127913
#	137863
#	148657
#	164334
#	174746
#	188038
#	202464
#	212786
#	223226
#	236342
#	247823
#	257686
#
# Disc length: 3611 seconds
#
# Revision: 0
# Processed by: cddbd v1.5.1PL0 Copyright (c) Steve Scherf et al.
# Submitted via: EasyCDDAExtractor 4.6.9.1
#
DISCID=510e1916
DTITLE=Various Artist - Queens of Country
DYEAR=2004
DGENRE=Country
TTITLE0=Lynn Anderson - Rose Garden
TTITLE1=Loretta Lynn - You're Looking At Country
TTITLE2=Tammy Wynette - Stand By Your Man
TTITLE3=Anne Murray - Reason To Believe
TTITLE4=Patsy Cline - Stop The World
TTITLE5=Sandy Posey - Single Girl
TTITLE6=Deborah Allen - Baby I Lied
TTITLE7=Billie Jo Spears - Blanket On The Ground
TTITLE8=Cindy Morgan - You're My Best Friend
TTITLE9=Brenda Lee - Johnny One Time
TTITLE10=Donna Fargo - Sticks and Stones
TTITLE11=Dolly Parton - Honky Tonk Angels
TTITLE12=Holly Dunn - Daddy's Hands
TTITLE13=Skeeter Davis - My Last Date (With You)
TTITLE14=Dottie West - D I V O R C E
TTITLE15=Jo Ann Houston - Have You Ever Been Lonely
TTITLE16=Marie O'Brien - Excuse Me
TTITLE17=Sammi Smith - Help Me Make It Through The Night
TTITLE18=Barbara Fairchild - The Biggest Hurt
TTITLE19=Melba Montgomery - Silver Threads and Golden Needles
TTITLE20=Barbara Mandrell - Release Me
TTITLE21=Jeanne Pruett - Satin Sheets
EXTD=
EXTT0=
EXTT1=
EXTT2=
EXTT3=
EXTT4=
EXTT5=
EXTT6=
EXTT7=
EXTT8=
EXTT9=
EXTT10=
EXTT11=
EXTT12=
EXTT13=
EXTT14=
EXTT15=
EXTT16=
EXTT17=
EXTT18=
EXTT19=
EXTT20=
EXTT21=
PLAYORDER=
